# xmcd
# 
# Track frame offsets:
#     150
#     17141
#     28318
#     42539
#     60901
#     76613
#     92025
#     107716
#     120833
#     133734
#     144892
# 
# Disc length: 2130
# 
# Revision: 0
# Processed by: cddbd v1.5.2PL0 Copyright (c) Steve Scherf et al.
# Submitted via: fre:ac v1.0.31
# 
DISCID=8408500b
DTITLE=Kyda - One Play At A Time
DYEAR=2010
DGENRE=Country
TTITLE0=Forever More
TTITLE1=Some Days You Gotta Dance
TTITLE2=Dont Wannt To Love You Anymore
TTITLE3=Shattered Promises
TTITLE4=Woulndn't That Be Fine
TTITLE5=One Pay At A Time
TTITLE6=Something's Just Not Right
TTITLE7=When Will I Be Loved
TTITLE8=Into Your Heart
TTITLE9=Rockin' Robin
TTITLE10=Hurt So Good
EXTD=
EXTT0=
EXTT1=
EXTT2=
EXTT3=
EXTT4=
EXTT5=
EXTT6=
EXTT7=
EXTT8=
EXTT9=
EXTT10=
PLAYORDER=
